<?xml version="1.0" encoding="iso-8859-1"?>
<!-- Generator: Adobe Illustrator 19.0.0, SVG Export Plug-In . SVG Version: 6.00 Build 0)  -->
<svg version="1.1" id="Layer_1" xmlns="http://www.w3.org/2000/svg" xmlns:xlink="http://www.w3.org/1999/xlink" x="0px" y="0px"
	 viewBox="0 0 512 512" style="enable-background:new 0 0 512 512;" xml:space="preserve">
<g>
	<g>
		<path d="M486.4,153.6h-64v-27.409c22.042-5.709,38.4-25.557,38.4-49.391c0-28.279-22.921-51.2-51.2-51.2
			c-28.279,0-51.2,22.921-51.2,51.2c0,23.834,16.358,43.682,38.4,49.391V153.6H115.2v-27.409c22.042-5.709,38.4-25.557,38.4-49.391
			c0-28.279-22.921-51.2-51.2-51.2S51.2,48.52,51.2,76.8c0,23.834,16.358,43.682,38.4,49.391V153.6h-64
			C11.46,153.6,0,165.06,0,179.2v128c0,14.14,11.46,25.6,25.6,25.6h64v128H64c-7.074,0-12.8,5.726-12.8,12.8
			c0,7.074,5.726,12.8,12.8,12.8h76.8c7.074,0,12.8-5.726,12.8-12.8c0-7.074-5.726-12.8-12.8-12.8h-25.6v-128h281.6v128h-25.6
			c-7.074,0-12.8,5.726-12.8,12.8c0,7.074,5.726,12.8,12.8,12.8H448c7.074,0,12.8-5.726,12.8-12.8c0-7.074-5.726-12.8-12.8-12.8
			h-25.6v-128h64c14.14,0,25.6-11.46,25.6-25.6v-128C512,165.06,500.54,153.6,486.4,153.6z M384,76.8
			c0-14.114,11.486-25.6,25.6-25.6s25.6,11.486,25.6,25.6s-11.486,25.6-25.6,25.6S384,90.914,384,76.8z M76.8,76.8
			c0-14.114,11.486-25.6,25.6-25.6S128,62.686,128,76.8s-11.486,25.6-25.6,25.6S76.8,90.914,76.8,76.8z M25.6,179.2h71.501
			L25.6,250.701V179.2z M71.501,307.2H25.6v-20.301L133.299,179.2h66.202L71.501,307.2z M107.699,307.2l128-128h66.202l-128,128
			H107.699z M210.099,307.2l128-128h66.202l-128,128H210.099z M486.4,307.2h-71.501l71.501-71.501V307.2z M486.4,199.501
			L378.701,307.2h-66.202l128-128H486.4V199.501z"/>
	</g>
</g>
<g>
</g>
<g>
</g>
<g>
</g>
<g>
</g>
<g>
</g>
<g>
</g>
<g>
</g>
<g>
</g>
<g>
</g>
<g>
</g>
<g>
</g>
<g>
</g>
<g>
</g>
<g>
</g>
<g>
</g>
</svg>
