<?xml version="1.0" encoding="iso-8859-1"?>
<!-- Generator: Adobe Illustrator 19.0.0, SVG Export Plug-In . SVG Version: 6.00 Build 0)  -->
<svg version="1.1" id="Layer_1" xmlns="http://www.w3.org/2000/svg" xmlns:xlink="http://www.w3.org/1999/xlink" x="0px" y="0px"
	 viewBox="0 0 512.009 512.009" style="enable-background:new 0 0 512.009 512.009;" xml:space="preserve">
<g>
	<g>
		<path d="M486.409,406.591h-56.021c0.034-0.529,0.307-0.973,0.307-1.502v-54.212c0-14.14-11.46-25.6-25.6-25.6h-56.021
			c0.034-0.529,0.307-0.973,0.307-1.51v-54.212c0-14.14-11.46-25.6-25.6-25.6H188.245c-14.14,0-25.6,11.46-25.6,25.6v54.212
			c0,0.538,0.273,0.981,0.307,1.51h-56.021c-14.14,0-25.6,11.46-25.6,25.6v54.212c0,0.538,0.273,0.981,0.307,1.502h-56.03
			c-14.14,0-25.6,11.46-25.6,25.6v54.212c0,14.14,11.46,25.6,25.6,25.6h460.8c14.14,0,25.6-11.46,25.6-25.6v-54.212
			C512.009,418.052,500.548,406.591,486.409,406.591z M405.094,350.877v54.212H269.559v-54.212H405.094z M188.245,269.555h135.526
			v54.212H188.245V269.555z M106.931,350.877h135.526v54.212H106.931V350.877z M161.135,486.404H25.608v-54.212h135.526V486.404z
			 M323.772,486.404H188.245v-54.212h135.526V486.404z M486.409,486.404H350.882v-54.212h135.526V486.404z"/>
	</g>
</g>
<g>
	<g>
		<path d="M360.508,7.504c-7.313-7.305-18.296-9.506-27.853-5.572l-153.873,63.36c-3.174,1.306-5.999,3.217-8.354,5.572
			c-3.524,3.524-5.999,8.055-7.006,13.082c-1.681,8.397,0.947,17.067,6.997,23.125l36.207,36.207l-13.577,13.577l-57.02-8.141
			c-3.985-0.572-8.021,0.768-10.863,3.618l-18.099,18.099c-10.001-10.001-26.206-10.001-36.207,0l-63.36,63.36
			c-10.001,10.001-10.001,26.206,0,36.207l18.108,18.082c10.001,10.001,26.206,10.001,36.207,0l63.36-63.36
			c10.001-10.001,10.001-26.206,0-36.207l13.577-13.577l57.02,8.141c3.985,0.572,8.021-0.768,10.863-3.618l18.099-18.099
			l36.207,36.207c6.05,6.05,14.729,8.678,23.125,6.997c5.026-1.007,9.557-3.482,13.082-6.997c2.355-2.355,4.267-5.18,5.572-8.354
			l63.36-153.865C370.014,25.791,367.821,14.809,360.508,7.504z M43.708,269.981l-18.099-18.099l63.36-63.36l18.099,18.099
			L43.708,269.981z M279.031,179.468l-36.207-36.207l27.153-27.153c5-5.001,5-13.099,0-18.099c-5.001-5-13.099-5-18.099,0
			l-27.153,27.153l-36.198-36.198l153.865-63.36L279.031,179.468z"/>
	</g>
</g>
<g>
</g>
<g>
</g>
<g>
</g>
<g>
</g>
<g>
</g>
<g>
</g>
<g>
</g>
<g>
</g>
<g>
</g>
<g>
</g>
<g>
</g>
<g>
</g>
<g>
</g>
<g>
</g>
<g>
</g>
</svg>
