<?xml version="1.0" encoding="iso-8859-1"?>
<!-- Generator: Adobe Illustrator 19.0.0, SVG Export Plug-In . SVG Version: 6.00 Build 0)  -->
<svg version="1.1" id="Layer_1" xmlns="http://www.w3.org/2000/svg" xmlns:xlink="http://www.w3.org/1999/xlink" x="0px" y="0px"
	 viewBox="0 0 512 512" style="enable-background:new 0 0 512 512;" xml:space="preserve">
<g>
	<g>
		<path d="M504.499,365.901l-76.8-76.8c-4.838-4.838-11.366-7.501-18.099-7.501c-1.365,0-2.731,0.111-4.105,0.333
			c-8.124,1.323-15.121,6.46-18.799,13.824c-1.417,2.842-7.134,14.95-10.854,30.771c-4.42-6.135-8.516-12.339-12.348-18.517
			C347.648,282.436,331.273,256,281.6,256c0-2.748-0.444-5.487-1.314-8.098L231.782,102.4H243.2c7.074,0,12.8-5.726,12.8-12.8
			c0-7.074-5.726-12.8-12.8-12.8h-38.4H128H89.6c-7.074,0-12.8,5.726-12.8,12.8c0,7.074,5.726,12.8,12.8,12.8h12.8v102.4H76.8v-51.2
			H51.2v51.2H25.6C11.46,204.8,0,216.26,0,230.4v128C0,372.54,11.46,384,25.6,384h1.297c5.948,29.175,31.795,51.2,62.703,51.2
			c30.908,0,56.755-22.025,62.703-51.2h53.794c5.948,29.175,31.795,51.2,62.703,51.2c32.469,0,59.076-24.397,63.164-55.774
			c14.626,8.883,32.06,14.882,52.105,14.882c0.367,0,0.521,0.034,0.862,0.034c1.929,2.671,4.079,5.274,6.562,7.748
			c12.348,12.348,29.423,18.876,49.391,18.876c27.989,0,54.076-12.638,56.96-14.08c7.356-3.678,12.501-10.675,13.824-18.799
			C512.99,379.981,510.319,371.72,504.499,365.901z M128,102.4h76.8L256,256H128V102.4z M26.897,358.4H25.6v-128h76.8v78.097
			c-4.139-0.845-8.414-1.297-12.8-1.297C58.692,307.2,32.845,329.224,26.897,358.4z M89.6,409.6c-21.205,0-38.4-17.195-38.4-38.4
			s17.195-38.4,38.4-38.4c21.205,0,38.4,17.195,38.4,38.4S110.805,409.6,89.6,409.6z M206.097,358.4h-53.794
			c-3.166-15.522-12.109-28.843-24.303-38.076V281.6h128v26.897C230.963,313.6,211.2,333.363,206.097,358.4z M268.8,409.6
			c-21.205,0-38.4-17.195-38.4-38.4s17.195-38.4,38.4-38.4c21.205,0,38.4,17.195,38.4,38.4S290.005,409.6,268.8,409.6z
			 M323.866,339.149c-9.045-15.471-24.166-26.957-42.266-30.652V281.6c35.422,0,45.252,15.863,60.151,39.885
			c7.851,12.689,17.186,27.17,31.317,40.823c0.196,1.792,0.555,3.584,0.879,5.376C352.256,364.655,335.078,352.836,323.866,339.149z
			 M440.892,395.375c-11.383,0-22.758-2.842-31.292-11.375c-25.6-25.6,0-76.8,0-76.8l76.8,76.8
			C486.4,384,463.642,395.375,440.892,395.375z"/>
	</g>
</g>
<g>
</g>
<g>
</g>
<g>
</g>
<g>
</g>
<g>
</g>
<g>
</g>
<g>
</g>
<g>
</g>
<g>
</g>
<g>
</g>
<g>
</g>
<g>
</g>
<g>
</g>
<g>
</g>
<g>
</g>
</svg>
