<?xml version="1.0" encoding="iso-8859-1"?>
<!-- Generator: Adobe Illustrator 19.0.0, SVG Export Plug-In . SVG Version: 6.00 Build 0)  -->
<svg version="1.1" id="Layer_1" xmlns="http://www.w3.org/2000/svg" xmlns:xlink="http://www.w3.org/1999/xlink" x="0px" y="0px"
	 viewBox="0 0 512 512" style="enable-background:new 0 0 512 512;" xml:space="preserve">
<g>
	<g>
		<path d="M486.381,203.878h-62.02L387.94,140.8l36.42-63.078h62.02c10.812,0,20.463-6.793,24.107-16.973
			c3.644-10.18,0.495-21.555-7.859-28.416C476.857,11.179,446.103,0,413.677,0c-77.636,0-140.8,63.164-140.8,140.8
			c0,2.594,0.119,5.086,0.324,7.475L18.728,402.748c-24.951,24.951-24.951,65.553,0,90.513C30.811,505.344,46.888,512,63.98,512
			c17.092,0,33.169-6.656,45.252-18.739L341.365,261.12c21.888,13.312,46.882,20.48,72.311,20.48
			c32.427,0,63.181-11.179,88.951-32.333c8.354-6.861,11.503-18.236,7.859-28.416C506.843,210.679,497.192,203.878,486.381,203.878z
			 M413.677,256c-28.791,0-54.793-10.94-74.991-28.399L91.134,475.153C83.633,482.654,73.811,486.4,63.98,486.4
			c-9.83,0-19.652-3.746-27.153-11.247c-14.993-14.993-14.993-39.313,0-54.306l263.33-263.33
			c-0.802-5.504-1.681-10.991-1.681-16.717c0-63.625,51.575-115.2,115.2-115.2c27.725,0,52.821,10.197,72.704,26.522h-76.8
			l-51.2,88.678l51.2,88.678h76.8C466.506,245.803,441.401,256,413.677,256z"/>
	</g>
</g>
<g>
	<g>
		<circle cx="63.98" cy="448" r="12.8"/>
	</g>
</g>
<g>
</g>
<g>
</g>
<g>
</g>
<g>
</g>
<g>
</g>
<g>
</g>
<g>
</g>
<g>
</g>
<g>
</g>
<g>
</g>
<g>
</g>
<g>
</g>
<g>
</g>
<g>
</g>
<g>
</g>
</svg>
