<?xml version="1.0" encoding="iso-8859-1"?>
<!-- Generator: Adobe Illustrator 19.0.0, SVG Export Plug-In . SVG Version: 6.00 Build 0)  -->
<svg version="1.1" id="Layer_1" xmlns="http://www.w3.org/2000/svg" xmlns:xlink="http://www.w3.org/1999/xlink" x="0px" y="0px"
	 viewBox="0 0 512 512" style="enable-background:new 0 0 512 512;" xml:space="preserve">
<g>
	<g>
		<path d="M389.48,456.047L299.214,230.4h14.387c14.14,0,25.6-11.46,25.6-25.6v-25.6c0-14.14-11.46-25.6-25.6-25.6V128h38.4
			c14.14,0,25.6-11.46,25.6-25.6V25.6c0-14.14-11.46-25.6-25.6-25.6h-153.6c-14.14,0-25.6,11.46-25.6,25.6h-25.6
			c-14.14,0-25.6,11.46-25.6,25.6v25.6c0,14.14,11.46,25.6,25.6,25.6h25.6c0,14.14,11.46,25.6,25.6,25.6h38.4v25.6
			c-14.14,0-25.6,11.46-25.6,25.6v25.6c0,14.14,11.46,25.6,25.6,25.6h14.387l-90.257,225.647c-2.628,6.562,0.546,14.012,7.125,16.64
			c1.553,0.623,3.174,0.913,4.753,0.913c5.077,0,9.873-3.038,11.878-8.047l77.722-194.313V499.2c0,7.074,5.726,12.8,12.8,12.8
			c7.074,0,12.8-5.726,12.8-12.8V271.241l77.722,194.313c1.997,5.009,6.801,8.047,11.878,8.047c1.579,0,3.2-0.29,4.753-0.913
			C388.925,470.059,392.1,462.609,389.48,456.047z M172.802,76.8h-25.6V51.2h25.6V76.8z M198.402,102.4V25.6h153.6v76.8H198.402z
			 M288.002,128v25.6h-25.6V128H288.002z M236.802,204.8v-25.6h76.8v25.6H236.802z"/>
	</g>
</g>
<g>
</g>
<g>
</g>
<g>
</g>
<g>
</g>
<g>
</g>
<g>
</g>
<g>
</g>
<g>
</g>
<g>
</g>
<g>
</g>
<g>
</g>
<g>
</g>
<g>
</g>
<g>
</g>
<g>
</g>
</svg>
