<?xml version="1.0" encoding="iso-8859-1"?>
<!-- Generator: Adobe Illustrator 19.0.0, SVG Export Plug-In . SVG Version: 6.00 Build 0)  -->
<svg version="1.1" id="Layer_1" xmlns="http://www.w3.org/2000/svg" xmlns:xlink="http://www.w3.org/1999/xlink" x="0px" y="0px"
	 viewBox="0 0 512 512" style="enable-background:new 0 0 512 512;" xml:space="preserve">
<g>
	<g>
		<path d="M507.699,318.605l-51.2-76.809c-4.745-7.125-12.74-11.401-21.299-11.401H332.8c-14.14,0-25.6,11.46-25.6,25.6v179.2H204.8
			v-76.8h25.6c14.14,0,25.6-11.46,25.6-25.6v-51.2c0-5.811-1.98-11.452-5.606-15.992l-42.761-53.453l192.12-110.916
			c2.569,0.512,5.188,0.751,7.817,0.87c-2.5,11.58-6.938,17.476-11.315,23.108C390.502,132.561,384,140.907,384,156.796
			c0,21.171,17.229,38.4,38.4,38.4s38.4-17.229,38.4-38.4c0-7.074-5.726-12.8-12.8-12.8c-7.074,0-12.8,5.726-12.8,12.8
			c0,7.066-5.751,12.8-12.8,12.8s-12.8-5.734-12.8-12.8c0-7.091,2.15-9.839,6.827-15.846c6.647-8.516,15.275-19.857,17.903-45.005
			c0.282-0.154,0.58-0.23,0.862-0.393c24.491-14.14,32.879-45.449,18.739-69.939c-14.14-24.491-45.457-32.879-69.939-18.739
			c-4.062,2.338-7.117,5.598-10.232,8.798L59.238,127.996H25.6c-14.14,0-25.6,11.46-25.6,25.6v179.2c0,14.14,11.46,25.6,25.6,25.6
			v76.8H12.8c-7.074,0-12.8,5.726-12.8,12.8c0,7.074,5.726,12.8,12.8,12.8h39.689c5.931,29.21,31.744,51.2,62.711,51.2
			s56.781-21.99,62.711-51.2h156.186c5.948,29.175,31.795,51.2,62.703,51.2s56.755-22.025,62.703-51.2H486.4
			c14.14,0,25.6-11.46,25.6-25.6V332.804C512,327.753,510.507,322.812,507.699,318.605z M396.792,29.035
			c12.22-7.057,27.913-2.85,34.97,9.37c7.057,12.228,2.85,27.913-9.37,34.97c-12.228,7.057-27.913,2.859-34.97-9.37
			C380.365,51.785,384.563,36.092,396.792,29.035z M365.252,76.804c2.227,3.849,4.983,7.151,7.97,10.18L191.454,191.928
			l-16.179-20.224L360.422,64.815C361.557,68.911,363.034,72.956,365.252,76.804z M304.341,67.631l-145.237,83.857l-11.11-13.884
			c-3.883-4.847-9.515-7.484-15.522-8.593L304.341,67.631z M128,153.596l81.92,102.4H128V153.596z M25.6,153.596h76.8v102.4H25.6
			V153.596z M25.6,281.596h204.8v51.2H25.6V281.596z M115.2,486.396c-21.171,0-38.4-17.229-38.4-38.4
			c0-21.171,17.229-38.4,38.4-38.4s38.4,17.229,38.4,38.4C153.6,469.167,136.371,486.396,115.2,486.396z M179.2,435.196h-1.289
			c-5.931-29.21-31.744-51.2-62.711-51.2s-56.781,21.99-62.711,51.2H51.2v-76.8h128V435.196z M332.8,255.996h102.4l42.667,64.009
			L332.8,319.996V255.996z M396.8,486.396c-21.205,0-38.4-17.195-38.4-38.4c0-21.205,17.195-38.4,38.4-38.4
			c21.205,0,38.4,17.195,38.4,38.4C435.2,469.201,418.005,486.396,396.8,486.396z M486.4,371.196h-25.6v25.6h25.6v38.4h-26.897
			c-5.948-29.175-31.795-51.2-62.703-51.2c-30.908,0-56.755,22.025-62.703,51.2H332.8v-89.6l153.6,0.008V371.196z"/>
	</g>
</g>
<g>
</g>
<g>
</g>
<g>
</g>
<g>
</g>
<g>
</g>
<g>
</g>
<g>
</g>
<g>
</g>
<g>
</g>
<g>
</g>
<g>
</g>
<g>
</g>
<g>
</g>
<g>
</g>
<g>
</g>
</svg>
