<?xml version="1.0" encoding="iso-8859-1"?>
<!-- Generator: Adobe Illustrator 19.0.0, SVG Export Plug-In . SVG Version: 6.00 Build 0)  -->
<svg version="1.1" id="Layer_1" xmlns="http://www.w3.org/2000/svg" xmlns:xlink="http://www.w3.org/1999/xlink" x="0px" y="0px"
	 viewBox="0 0 512 512" style="enable-background:new 0 0 512 512;" xml:space="preserve">
<g>
	<g>
		<path d="M507.699,318.609l-51.2-76.809c-4.745-7.125-12.74-11.401-21.299-11.401H332.8c-14.14,0-25.6,11.46-25.6,25.6v179.2
			H177.911c-1.929-9.515-6.144-18.133-11.785-25.6h0.273v-51.2h12.8c14.14,0,25.6-11.46,25.6-25.6v-51.2
			c0-8.559-4.275-16.555-11.401-21.299l-24.704-16.469L416.196,102.4H460.8c14.14,0,25.6-11.46,25.6-25.6V25.6
			c0-14.14-11.46-25.6-25.6-25.6h-128c-14.14,0-25.6,11.46-25.6,25.6v51.2c0,14.14,11.46,25.6,25.6,25.6h31.804L144.887,227.951
			l-28.288-18.859c-4.207-2.799-9.148-4.292-14.199-4.292H51.2c-14.14,0-25.6,11.46-25.6,25.6v102.4c0,14.14,11.46,25.6,25.6,25.6
			H64v51.2h0.273c-5.641,7.467-9.856,16.085-11.785,25.6H12.8C5.726,435.2,0,440.926,0,448c0,7.074,5.726,12.8,12.8,12.8h39.689
			C58.419,490.01,84.233,512,115.2,512s56.781-21.99,62.711-51.2h156.186c5.948,29.175,31.795,51.2,62.703,51.2
			s56.755-22.025,62.703-51.2H486.4c14.14,0,25.6-11.46,25.6-25.6V332.809C512,327.757,510.507,322.816,507.699,318.609z
			 M435.2,25.6h25.6v51.2h-25.6V25.6z M358.4,76.8h-25.6V25.6h25.6V76.8z M384,25.6h25.6v51.2H384V25.6z M51.2,230.4h51.2l76.8,51.2
			h-128V230.4z M115.2,486.4c-21.171,0-38.4-17.229-38.4-38.4c0-21.171,17.229-38.4,38.4-38.4s38.4,17.229,38.4,38.4
			C153.6,469.171,136.371,486.4,115.2,486.4z M89.6,389.564V358.4h51.2v31.164c-7.868-3.456-16.452-5.564-25.6-5.564
			C106.052,384,97.468,386.108,89.6,389.564z M51.2,332.8v-25.6h128v25.6H51.2z M332.8,256h102.4l42.667,64.009L332.8,320V256z
			 M396.8,486.4c-21.205,0-38.4-17.195-38.4-38.4c0-21.205,17.195-38.4,38.4-38.4c21.205,0,38.4,17.195,38.4,38.4
			C435.2,469.205,418.005,486.4,396.8,486.4z M486.4,371.2h-25.6v25.6h25.6v38.4h-26.897c-5.948-29.175-31.795-51.2-62.703-51.2
			c-30.908,0-56.755,22.025-62.703,51.2H332.8v-89.6l153.6,0.008V371.2z"/>
	</g>
</g>
<g>
</g>
<g>
</g>
<g>
</g>
<g>
</g>
<g>
</g>
<g>
</g>
<g>
</g>
<g>
</g>
<g>
</g>
<g>
</g>
<g>
</g>
<g>
</g>
<g>
</g>
<g>
</g>
<g>
</g>
</svg>
