<?xml version="1.0" encoding="iso-8859-1"?>
<!-- Generator: Adobe Illustrator 19.0.0, SVG Export Plug-In . SVG Version: 6.00 Build 0)  -->
<svg version="1.1" id="Layer_1" xmlns="http://www.w3.org/2000/svg" xmlns:xlink="http://www.w3.org/1999/xlink" x="0px" y="0px"
	 viewBox="0 0 512.001 512.001" style="enable-background:new 0 0 512.001 512.001;" xml:space="preserve">
<g>
	<g>
		<path d="M504.499,161.093l-51.2-51.2c-2.748-2.748-10.633-6.528-11.204-6.733L157.935,0.76c-3.951-1.425-8.422-0.802-11.861,1.69
			l-140.8,102.4c-5.41,5.402-5.171,14.746-5.274,23.142v51.2c0,14.14,11.46,25.6,25.6,25.6H128v281.6H64
			c-7.074,0-12.8,5.726-12.8,12.8c0,7.074,5.726,12.8,12.8,12.8h230.4c7.074,0,12.8-5.726,12.8-12.8c0-7.074-5.726-12.8-12.8-12.8
			h-64v-204.8H256c14.14,0,25.6-11.46,25.6-25.6v-51.2h166.391v128c0,7.074,5.726,12.8,12.8,12.8c7.074,0,12.8-5.726,12.8-12.8v-128
			H486.4c10.351,0,19.686-6.238,23.654-15.804C514.014,179.423,511.821,168.415,504.499,161.093z M25.6,179.192V146.1l33.092,33.092
			H25.6z M43.691,127.992h66.202l-33.101,33.101L43.691,127.992z M128,179.192H94.899L128,146.091V179.192z M128,102.401H52.147
			v-0.009L128,47.233V102.401z M364.493,102.392H220.194l-34.099-64.282L364.493,102.392z M153.6,31.463l37.862,70.938H153.6V31.463
			z M153.6,299.7l33.092,33.092L153.6,365.893V299.7z M153.6,402.1l33.092,33.092L153.6,468.293V402.1z M204.8,486.392h-33.101
			l33.101-33.101V486.392z M204.8,417.102l-33.101-33.101l33.101-33.109V417.102z M204.8,314.702l-33.101-33.101H204.8V314.702z
			 M256,255.992H153.6v-128h51.2l51.2,51.209V255.992z M277.094,165.59c-0.981-1.519-36.096-37.598-36.096-37.598h73.694
			L277.094,165.59z M299.691,179.192l33.101-33.101l33.101,33.101H299.691z M350.891,127.992h66.202l-33.101,33.101L350.891,127.992
			z M402.091,179.192l42.146-42.146l42.163,42.146H402.091z"/>
	</g>
</g>
<g>
</g>
<g>
</g>
<g>
</g>
<g>
</g>
<g>
</g>
<g>
</g>
<g>
</g>
<g>
</g>
<g>
</g>
<g>
</g>
<g>
</g>
<g>
</g>
<g>
</g>
<g>
</g>
<g>
</g>
</svg>
