<?xml version="1.0" encoding="iso-8859-1"?>
<!-- Generator: Adobe Illustrator 19.0.0, SVG Export Plug-In . SVG Version: 6.00 Build 0)  -->
<svg version="1.1" id="Layer_1" xmlns="http://www.w3.org/2000/svg" xmlns:xlink="http://www.w3.org/1999/xlink" x="0px" y="0px"
	 viewBox="0 0 512 512" style="enable-background:new 0 0 512 512;" xml:space="preserve">
<g>
	<g>
		<path d="M499.2,332.8c-7.074,0-12.8,5.726-12.8,12.8c0,7.066-5.751,12.8-12.8,12.8s-12.8-5.734-12.8-12.8
			c0-7.091,2.15-9.839,6.827-15.846c7.68-9.839,18.022-21.999,18.654-57.694L486.4,272V95.539
			c24.482-14.14,32.87-45.448,18.731-69.931C490.991,1.118,459.674-7.27,435.191,6.87c-4.062,2.347-7.117,5.606-10.231,8.806
			L110.438,128H76.8c-14.14,0-25.6,11.46-25.6,25.6v179.2c0,14.14,11.46,25.6,25.6,25.6V384H64c-35.285,0-64,28.706-64,64
			c0,35.285,28.715,64,64,64h307.2c35.285,0,64-28.715,64-64c0-35.294-28.715-64-64-64H256v-25.6h25.6c14.14,0,25.6-11.46,25.6-25.6
			v-51.2c0-5.811-1.98-11.452-5.606-15.992l-42.761-53.453l192.12-110.916c3.234,0.64,6.536,0.913,9.856,0.939V268.8
			c0,28.092-6.801,36.787-13.346,45.21c-5.76,7.356-12.262,15.701-12.262,31.59c0,21.171,17.229,38.4,38.4,38.4
			s38.4-17.229,38.4-38.4C512,338.526,506.274,332.8,499.2,332.8z M355.533,67.644l-145.237,83.849l-11.11-13.884
			c-3.883-4.847-9.515-7.484-15.522-8.593L355.533,67.644z M76.8,153.6h76.8V256H76.8V153.6z M371.2,409.6
			c21.205,0,38.4,17.195,38.4,38.4c0,21.205-17.195,38.4-38.4,38.4H64c-21.205,0-38.4-17.195-38.4-38.4
			c0-21.205,17.195-38.4,38.4-38.4H371.2z M102.4,384v-25.6h128V384H102.4z M281.6,332.8H76.8v-51.2h204.8V332.8z M261.12,256H179.2
			V153.6L261.12,256z M242.654,191.932l-16.179-20.224L411.622,64.819c1.135,4.096,2.611,8.141,4.83,11.989
			c2.227,3.849,4.984,7.151,7.97,10.18L242.654,191.932z M438.622,64.009c-7.057-12.22-2.859-27.913,9.37-34.97
			c12.22-7.057,27.913-2.85,34.97,9.37c7.057,12.228,2.85,27.913-9.37,34.97C461.363,80.435,445.679,76.237,438.622,64.009z"/>
	</g>
</g>
<g>
	<g>
		<circle cx="64" cy="448" r="12.8"/>
	</g>
</g>
<g>
	<g>
		<circle cx="166.4" cy="448" r="12.8"/>
	</g>
</g>
<g>
	<g>
		<circle cx="268.8" cy="448" r="12.8"/>
	</g>
</g>
<g>
	<g>
		<circle cx="371.2" cy="448" r="12.8"/>
	</g>
</g>
<g>
	<g>
		<path d="M115.2,422.4c-7.074,0-12.8,5.726-12.8,12.8v25.6c0,7.074,5.726,12.8,12.8,12.8s12.8-5.726,12.8-12.8v-25.6
			C128,428.126,122.274,422.4,115.2,422.4z"/>
	</g>
</g>
<g>
	<g>
		<path d="M217.6,422.4c-7.074,0-12.8,5.726-12.8,12.8v25.6c0,7.074,5.726,12.8,12.8,12.8c7.074,0,12.8-5.726,12.8-12.8v-25.6
			C230.4,428.126,224.674,422.4,217.6,422.4z"/>
	</g>
</g>
<g>
	<g>
		<path d="M320,422.4c-7.074,0-12.8,5.726-12.8,12.8v25.6c0,7.074,5.726,12.8,12.8,12.8c7.074,0,12.8-5.726,12.8-12.8v-25.6
			C332.8,428.126,327.074,422.4,320,422.4z"/>
	</g>
</g>
<g>
</g>
<g>
</g>
<g>
</g>
<g>
</g>
<g>
</g>
<g>
</g>
<g>
</g>
<g>
</g>
<g>
</g>
<g>
</g>
<g>
</g>
<g>
</g>
<g>
</g>
<g>
</g>
<g>
</g>
</svg>
