<?xml version="1.0" encoding="iso-8859-1"?>
<!-- Generator: Adobe Illustrator 19.0.0, SVG Export Plug-In . SVG Version: 6.00 Build 0)  -->
<svg version="1.1" id="Layer_1" xmlns="http://www.w3.org/2000/svg" xmlns:xlink="http://www.w3.org/1999/xlink" x="0px" y="0px"
	 viewBox="0 0 512.009 512.009" style="enable-background:new 0 0 512.009 512.009;" xml:space="preserve">
<g>
	<g>
		<path d="M466.777,495.94l-82.347-312.9l24.397-92.698c6.238-23.689,2.321-46.251-11-63.539C384.516,9.515,363.695,0,339.204,0
			h-76.8c-47.787,0-96.563,37.598-108.723,83.814L45.231,495.94c-1.801,6.835,2.278,13.841,9.114,15.642
			c6.861,1.783,13.841-2.278,15.642-9.114l21.069-80.06h99.507l21.069,80.06c1.809,6.835,8.823,10.889,15.642,9.114
			c6.835-1.801,10.914-8.798,9.114-15.642l-19.362-73.54h77.952l-19.345,73.54c-1.8,6.835,2.278,13.841,9.114,15.642
			c1.101,0.29,2.185,0.427,3.277,0.427c5.675,0,10.846-3.797,12.365-9.54l70.827-269.141l70.827,269.141
			c1.502,5.734,6.673,9.532,12.356,9.532c1.084,0,2.176-0.136,3.277-0.427C464.507,509.773,468.578,502.775,466.777,495.94z
			 M140.804,233.327l12.698,48.273h-25.404L140.804,233.327z M97.787,396.8l23.578-89.6h38.878l23.578,89.6H97.787z M301.717,396.8
			h-91.426l-23.586-89.6h138.59L301.717,396.8z M332.036,281.6H179.972L156.394,192h199.219L332.036,281.6z M362.346,166.4h-203.93
			l20.019-76.066C187.669,55.253,226.12,25.6,262.404,25.6h76.8c16.358,0,29.986,5.973,38.349,16.828
			c8.371,10.863,10.684,25.566,6.528,41.387L362.346,166.4z"/>
	</g>
</g>
<g>
</g>
<g>
</g>
<g>
</g>
<g>
</g>
<g>
</g>
<g>
</g>
<g>
</g>
<g>
</g>
<g>
</g>
<g>
</g>
<g>
</g>
<g>
</g>
<g>
</g>
<g>
</g>
<g>
</g>
</svg>
