<?xml version="1.0" encoding="iso-8859-1"?>
<!-- Generator: Adobe Illustrator 19.0.0, SVG Export Plug-In . SVG Version: 6.00 Build 0)  -->
<svg version="1.1" id="Layer_1" xmlns="http://www.w3.org/2000/svg" xmlns:xlink="http://www.w3.org/1999/xlink" x="0px" y="0px"
	 viewBox="0 0 512 512" style="enable-background:new 0 0 512 512;" xml:space="preserve">
<g>
	<g>
		<path d="M486.4,281.6h-13.918c-17.69-30.575-50.611-51.2-88.482-51.2c-37.871,0-70.784,20.625-88.482,51.2h-23.697l19.874-39.748
			c1.783-3.558,2.705-7.475,2.705-11.452v-128h12.8c7.074,0,12.8-5.726,12.8-12.8c0-7.074-5.726-12.8-12.8-12.8h-192
			c-7.074,0-12.8,5.726-12.8,12.8c0,7.074,5.726,12.8,12.8,12.8H128v102.4H76.8v-51.2H51.2v51.2H25.6C11.46,204.8,0,216.26,0,230.4
			v128C0,372.54,11.46,384,25.6,384h4.702c10.581,29.764,38.707,51.2,72.098,51.2s61.517-21.436,72.098-51.2h121.02
			c17.698,30.566,50.611,51.2,88.482,51.2c37.871,0,70.784-20.634,88.482-51.2H486.4c14.14,0,25.6-11.46,25.6-25.6v-51.2
			C512,293.06,500.54,281.6,486.4,281.6z M384,256c22.579,0,42.624,10.001,56.61,25.6H327.39C341.376,266.001,361.421,256,384,256z
			 M153.6,102.4h115.2v102.4H153.6V102.4z M25.6,358.4v-128H128v55.902c-8.047-2.859-16.572-4.702-25.6-4.702
			C59.981,281.6,25.6,315.981,25.6,358.4z M102.4,409.6c-28.228,0-51.2-22.972-51.2-51.2c0-28.237,22.972-51.2,51.2-51.2
			s51.2,22.963,51.2,51.2C153.6,386.628,130.628,409.6,102.4,409.6z M230.4,358.4h-51.2c0-19.763-7.671-37.589-19.934-51.2H230.4
			V358.4z M153.6,281.6v-51.2h115.2l-25.6,51.2H153.6z M384,409.6c-22.579,0-42.624-10.001-56.61-25.6h113.229
			C426.624,399.599,406.579,409.6,384,409.6z M486.4,358.4H256.802H256v-51.2h0.802H486.4V358.4z"/>
	</g>
</g>
<g>
</g>
<g>
</g>
<g>
</g>
<g>
</g>
<g>
</g>
<g>
</g>
<g>
</g>
<g>
</g>
<g>
</g>
<g>
</g>
<g>
</g>
<g>
</g>
<g>
</g>
<g>
</g>
<g>
</g>
</svg>
