<?xml version="1.0" encoding="iso-8859-1"?>
<!-- Generator: Adobe Illustrator 19.0.0, SVG Export Plug-In . SVG Version: 6.00 Build 0)  -->
<svg version="1.1" id="Layer_1" xmlns="http://www.w3.org/2000/svg" xmlns:xlink="http://www.w3.org/1999/xlink" x="0px" y="0px"
	 viewBox="0 0 512 512" style="enable-background:new 0 0 512 512;" xml:space="preserve">
<g>
	<g>
		<path d="M448,306.699c-26.146,0-48.546,15.718-58.479,38.187l-27.435-5.965L483.61,186.686c3.174-3.977,3.703-9.438,1.323-13.935
			c-2.347-4.497-7.322-7.066-12.228-6.827l-52.309,3.644l-74.146-74.146c-24.226-24.175-66.347-24.149-90.53,0l-92.015,92.015
			l-53.555,3.729l-21.897-43.802c-2.176-4.335-6.605-7.074-11.452-7.074h-64c-7.074,0-12.8,5.726-12.8,12.8
			c0,7.074,5.726,12.8,12.8,12.8h56.098l71.159,142.345l-0.256,74.411c-0.102,31.804,16.691,47.189,32.469,50.978
			c17.911,4.301,37.504-4.48,52.403-23.475c19.012-24.226,35.703-45.909,49.57-64.12l109.833,23.876
			c0,0.273-0.077,0.521-0.077,0.794c0,35.345,28.646,64,64,64c35.345,0,64-28.655,64-64C512,335.354,483.345,306.699,448,306.699z
			 M273.826,113.513c14.473-14.49,39.799-14.515,54.323,0l58.402,58.402l-183.936,12.809L273.826,113.513z M204.561,394.337
			c-8.448,10.752-18.534,16.265-26.317,14.396c-7.97-1.92-12.902-11.887-12.851-26.01l0.213-60.314l81.033,17.613
			C234.377,356.048,220.228,374.369,204.561,394.337z M334.566,332.931l-172.262-37.436l-39.748-79.514l322.85-22.485
			L335.403,331.309C335.002,331.804,334.882,332.402,334.566,332.931z M447.992,409.082c-19.507,0.009-35.482-14.66-37.905-33.527
			l35.191,7.646c0.922,0.196,1.826,0.29,2.722,0.29c5.897,0,11.204-4.087,12.501-10.078c1.502-6.912-2.876-13.722-9.779-15.241
			l-35.26-7.663c6.784-10.897,18.782-18.227,32.529-18.227c21.171,0,38.4,17.229,38.4,38.4S469.163,409.082,447.992,409.082z"/>
	</g>
</g>
<g>
</g>
<g>
</g>
<g>
</g>
<g>
</g>
<g>
</g>
<g>
</g>
<g>
</g>
<g>
</g>
<g>
</g>
<g>
</g>
<g>
</g>
<g>
</g>
<g>
</g>
<g>
</g>
<g>
</g>
</svg>
