<?xml version="1.0" encoding="iso-8859-1"?>
<!-- Generator: Adobe Illustrator 19.0.0, SVG Export Plug-In . SVG Version: 6.00 Build 0)  -->
<svg version="1.1" id="Layer_1" xmlns="http://www.w3.org/2000/svg" xmlns:xlink="http://www.w3.org/1999/xlink" x="0px" y="0px"
	 viewBox="0 0 512 512" style="enable-background:new 0 0 512 512;" xml:space="preserve">
<g>
	<g>
		<path d="M507.699,229.009l-51.2-76.809c-4.745-7.125-12.74-11.401-21.299-11.401H332.8c-14.14,0-25.6,11.46-25.6,25.6v179.2
			H203.503c-1.937-9.515-6.17-18.125-11.827-25.6H230.4c11.75,0,21.982-7.996,24.832-19.388L301.798,115.2H358.4
			c7.074,0,12.8-5.726,12.8-12.8c0-7.074-5.726-12.8-12.8-12.8h-66.56c-5.862,0-10.974,3.977-12.416,9.66L262.4,166.528
			l-31.275-0.128l-69.299-69.299c-4.804-4.804-11.315-7.501-18.099-7.501c-6.793,0-13.303,2.697-18.099,7.501L56.32,166.4H25.6
			c-8.875,0-17.109,4.591-21.777,12.143s-5.086,16.973-1.118,24.909l51.2,102.4C58.24,314.522,67.106,320,76.8,320h13.124
			c-5.658,7.475-9.89,16.085-11.827,25.6H38.4c-7.074,0-12.8,5.726-12.8,12.8s5.726,12.8,12.8,12.8h39.697
			c5.948,29.175,31.795,51.2,62.703,51.2c30.908,0,56.755-22.025,62.703-51.2H332.8h1.297c5.948,29.175,31.795,51.2,62.703,51.2
			s56.755-22.025,62.703-51.2H486.4c14.14,0,25.6-11.46,25.6-25.6V243.209C512,238.157,510.507,233.216,507.699,229.009z
			 M143.727,115.2l51.2,51.2h-102.4L143.727,115.2z M140.8,396.8c-21.205,0-38.4-17.195-38.4-38.4s17.195-38.4,38.4-38.4
			c21.205,0,38.4,17.195,38.4,38.4S162.005,396.8,140.8,396.8z M76.8,294.4L25.6,192H256l-25.6,102.4H76.8z M332.8,166.4h102.4
			l42.667,64.009L332.8,230.4V166.4z M396.8,396.8c-21.205,0-38.4-17.195-38.4-38.4s17.195-38.4,38.4-38.4
			c21.205,0,38.4,17.195,38.4,38.4S418.005,396.8,396.8,396.8z M486.4,281.6h-25.6v25.6h25.6v38.4h-26.897
			c-5.948-29.175-31.795-51.2-62.703-51.2c-30.908,0-56.755,22.025-62.703,51.2H332.8V256l153.6,0.009V281.6z"/>
	</g>
</g>
<g>
</g>
<g>
</g>
<g>
</g>
<g>
</g>
<g>
</g>
<g>
</g>
<g>
</g>
<g>
</g>
<g>
</g>
<g>
</g>
<g>
</g>
<g>
</g>
<g>
</g>
<g>
</g>
<g>
</g>
</svg>
