<?xml version="1.0" encoding="iso-8859-1"?>
<!-- Generator: Adobe Illustrator 19.0.0, SVG Export Plug-In . SVG Version: 6.00 Build 0)  -->
<svg version="1.1" id="Layer_1" xmlns="http://www.w3.org/2000/svg" xmlns:xlink="http://www.w3.org/1999/xlink" x="0px" y="0px"
	 viewBox="0 0 512 512" style="enable-background:new 0 0 512 512;" xml:space="preserve">
<g>
	<g>
		<path d="M507.699,229.009l-51.2-76.809c-4.745-7.125-12.74-11.401-21.299-11.401H332.8c-14.14,0-25.6,11.46-25.6,25.6v76.8h-25.6
			v-25.6c0-14.14-11.46-25.6-25.6-25.6h-12.8v-25.6c0-14.14-11.46-25.6-25.6-25.6h-12.8v-25.6c0-14.14-11.46-25.6-25.6-25.6H128
			c-14.14,0-25.6,11.46-25.6,25.6v25.6H89.6c-14.14,0-25.6,11.46-25.6,25.6V192H51.2c-14.14,0-25.6,11.46-25.6,25.6v25.6
			C11.46,243.2,0,254.66,0,268.8v76.8c0,14.14,11.46,25.6,25.6,25.6h26.889c5.931,29.21,31.744,51.2,62.711,51.2
			s56.781-21.99,62.711-51.2H307.2h26.897c5.948,29.175,31.804,51.2,62.703,51.2c30.899,0,56.755-22.025,62.703-51.2H486.4
			c14.14,0,25.6-11.46,25.6-25.6V243.209C512,238.157,510.507,233.216,507.699,229.009z M256,217.6v25.6h-51.2v-25.6H256z
			 M217.6,166.4V192h-51.2v-25.6H217.6z M179.2,217.6v25.6H128v-25.6H179.2z M128,115.2h51.2v25.6H128V115.2z M89.6,166.4h51.2V192
			H89.6V166.4z M51.2,217.6h51.2v25.6H51.2V217.6z M115.2,396.8c-21.171,0-38.4-17.229-38.4-38.4S94.029,320,115.2,320
			s38.4,17.229,38.4,38.4S136.371,396.8,115.2,396.8z M307.2,345.6H177.911c-5.931-29.21-31.744-51.2-62.711-51.2
			s-56.781,21.99-62.711,51.2H25.6v-76.8h281.6V345.6z M332.8,166.4h102.4l42.667,64.009L332.8,230.4V166.4z M396.8,396.8
			c-21.205,0-38.4-17.195-38.4-38.4s17.195-38.4,38.4-38.4c21.205,0,38.4,17.195,38.4,38.4S418.005,396.8,396.8,396.8z M486.4,281.6
			h-25.6v25.6h25.6v38.4h-26.897c-5.948-29.175-31.804-51.2-62.703-51.2c-30.899,0-56.755,22.025-62.703,51.2H332.8V256l153.6,0.009
			V281.6z"/>
	</g>
</g>
<g>
</g>
<g>
</g>
<g>
</g>
<g>
</g>
<g>
</g>
<g>
</g>
<g>
</g>
<g>
</g>
<g>
</g>
<g>
</g>
<g>
</g>
<g>
</g>
<g>
</g>
<g>
</g>
<g>
</g>
</svg>
