<?xml version="1.0" encoding="iso-8859-1"?>
<!-- Generator: Adobe Illustrator 19.0.0, SVG Export Plug-In . SVG Version: 6.00 Build 0)  -->
<svg version="1.1" id="Layer_1" xmlns="http://www.w3.org/2000/svg" xmlns:xlink="http://www.w3.org/1999/xlink" x="0px" y="0px"
	 viewBox="0 0 512 512" style="enable-background:new 0 0 512 512;" xml:space="preserve">
<g>
	<g>
		<path d="M422.4,25.6h-51.2c-14.14,0-25.6,11.46-25.6,25.6h-38.4V25.6c0-14.14-11.46-25.6-25.6-25.6h-51.2
			c-14.14,0-25.6,11.46-25.6,25.6c0,9.062-0.171,17.587-0.35,26.069C136.9,56.422,64,98.381,64,204.8
			c0,11.87,8.166,22.187,19.721,24.917c1.963,0.461,3.934,0.691,5.888,0.691c9.523,0,18.483-5.342,22.886-14.157
			c13.85-27.691,53.734-34.679,81.946-36.446c-6.554,44.578-13.815,67.755-13.952,68.156c-0.836,2.577-1.289,5.325-1.289,8.038
			v230.4c0,14.14,11.46,25.6,25.6,25.6h76.8c14.14,0,25.6-11.46,25.6-25.6V179.2h38.4c0,14.14,11.46,25.6,25.6,25.6h51.2
			c14.14,0,25.6-11.46,25.6-25.6v-128C448,37.06,436.54,25.6,422.4,25.6z M230.4,25.6c25.6,0,51.2,0,51.2,0v25.6h-51.533
			C230.238,42.854,230.4,34.483,230.4,25.6z M281.6,486.4h-76.8V256c0,0,8.457-25.89,15.659-76.8H281.6V486.4z M422.4,179.2h-51.2
			v-25.6c0,0-128,0-153.6,0c-25.6,0-102.4,0-128,51.2c0-102.4,76.8-128,128-128c51.2,0,153.6,0,153.6,0V51.2h51.2V179.2z"/>
	</g>
</g>
<g>
</g>
<g>
</g>
<g>
</g>
<g>
</g>
<g>
</g>
<g>
</g>
<g>
</g>
<g>
</g>
<g>
</g>
<g>
</g>
<g>
</g>
<g>
</g>
<g>
</g>
<g>
</g>
<g>
</g>
</svg>
