<?xml version="1.0" encoding="iso-8859-1"?>
<!-- Generator: Adobe Illustrator 19.0.0, SVG Export Plug-In . SVG Version: 6.00 Build 0)  -->
<svg version="1.1" id="Layer_1" xmlns="http://www.w3.org/2000/svg" xmlns:xlink="http://www.w3.org/1999/xlink" x="0px" y="0px"
	 viewBox="0 0 512 512" style="enable-background:new 0 0 512 512;" xml:space="preserve">
<g>
	<g>
		<path d="M490.061,178.176c-31.275-4.514-54.861-31.59-54.861-62.976V25.6c0-14.14-11.46-25.6-25.6-25.6h-51.2
			c-14.14,0-25.6,11.46-25.6,25.6v128c0,42.351-34.449,76.8-76.8,76.8c-42.351,0-76.8-34.449-76.8-76.8v-128
			c0-14.14-11.46-25.6-25.6-25.6h-51.2C88.26,0,76.8,11.46,76.8,25.6v89.6c0,31.386-23.586,58.462-54.852,62.976
			C9.353,179.985,0,190.78,0,203.511V486.4C0,500.54,11.46,512,25.6,512h460.8c14.14,0,25.6-11.46,25.6-25.6V203.511
			C512,190.78,502.656,179.985,490.061,178.176z M25.6,307.2h153.6v25.6H25.6V307.2z M25.6,409.6h153.6v25.6H25.6V409.6z
			 M243.2,486.4H25.6v-25.6h153.6c14.14,0,25.6-11.46,25.6-25.6v-25.6c0-14.14-11.46-25.6-25.6-25.6H25.6v-25.6h153.6
			c14.14,0,25.6-11.46,25.6-25.6v-25.6c0-14.14-11.46-25.6-25.6-25.6H25.6v-78.089c43.366-6.263,76.8-43.213,76.8-88.311V25.6h51.2
			v128c0,52.173,39.159,94.746,89.6,101.111V486.4z M486.4,435.2H332.8v-25.6h153.6V435.2z M486.4,332.8H332.8v-25.6h153.6V332.8z
			 M486.4,281.6H332.8c-14.14,0-25.6,11.46-25.6,25.6v25.6c0,14.14,11.46,25.6,25.6,25.6h153.6V384H332.8
			c-14.14,0-25.6,11.46-25.6,25.6v25.6c0,14.14,11.46,25.6,25.6,25.6h153.6v25.6H268.8V254.711
			c50.441-6.366,89.6-48.939,89.6-101.111v-128h51.2v89.6c0,45.099,33.434,82.048,76.8,88.311V281.6z"/>
	</g>
</g>
<g>
</g>
<g>
</g>
<g>
</g>
<g>
</g>
<g>
</g>
<g>
</g>
<g>
</g>
<g>
</g>
<g>
</g>
<g>
</g>
<g>
</g>
<g>
</g>
<g>
</g>
<g>
</g>
<g>
</g>
</svg>
