<svg version="1.2" baseProfile="tiny-ps" xmlns="http://www.w3.org/2000/svg" viewBox="0 0 440 130" width="440" height="130">
	<title>Sugar Free-svg</title>
	<style>
		tspan { white-space:pre }
		.shp0 { fill: #000000 } 
	</style>
	<g id="Layer">
		<path id="Layer" class="shp0" d="M32.95 6.11C29.46 8.36 20.8 19.47 20.8 21.54C20.8 22.48 20.14 24.84 19.29 26.81C18.44 28.69 17.59 32.36 17.4 35C17.03 41.59 15.71 48.08 12.88 56.93C11.56 61.16 10.06 67.66 9.59 71.42C9.02 75.19 8.17 80.18 7.7 82.53C7.14 84.88 6.76 90.06 6.67 94.11C6.67 100.22 7.14 102.76 9.49 108.6C11 112.46 12.32 116.13 12.32 116.88C12.32 119.33 15.24 120.46 21.08 120.27C24.38 120.18 30.59 120.93 35.21 121.96C42.56 123.75 53.67 124.98 74.49 126.48C78.92 126.76 84.66 126.39 90.03 125.45C100.58 123.56 105.67 123.56 109.91 125.35L113.3 126.76L108.5 121.49C105.86 118.58 103.69 115.47 103.69 114.44C103.69 112.18 106.24 111.05 107.74 112.55C108.31 113.12 109.44 113.59 110.19 113.59C111.32 113.49 111.23 113.31 109.91 112.46C108.87 111.89 103.97 107.28 98.89 102.11C93.9 97.02 89.37 92.88 88.81 92.88C86.64 92.88 88.34 96.27 90.97 97.12C92.76 97.68 93.9 98.81 94.08 100.13C94.55 103.05 91.82 104.18 86.74 103.24C84.29 102.76 82.12 102.76 81.65 103.33C81.08 103.8 82.03 104.18 84.1 104.18C87.77 104.18 93.33 105.87 93.33 107C93.33 107.38 94.27 107.47 95.5 107.28C98.98 106.62 102.75 108.51 102.75 110.95C102.75 113.78 102 114.81 98.32 116.88C94.74 118.95 94.27 120.27 97.29 119.42C98.61 119.14 99.08 119.33 98.61 119.99C96.06 124.22 68.74 126.01 59.04 122.62C55.56 121.4 54.24 121.31 53.67 122.15C52.82 123.56 44.82 122.91 35.02 120.65C28.61 119.14 28.14 118.86 29.74 117.73C32.1 116.04 30.4 116.13 27.39 117.82C24.38 119.52 16.09 119.71 16.09 118.01C15.9 112.65 15.14 105.78 14.67 105.31C14.39 104.93 13.73 105.31 13.35 105.96C12.79 106.81 12.22 106.25 11.47 103.99C10.62 101.64 10.15 101.16 9.59 102.2C8.27 104.27 7.23 95.61 7.98 89.31C8.36 86.29 9.3 81.4 10.15 78.29C10.9 75.19 11.56 71.42 11.56 69.92C11.47 66.91 12.69 61.82 15.99 50.91C17.12 47.24 17.97 43.85 17.88 43.38C17.4 41.4 19.95 37.45 21.93 37.07C23.81 36.69 23.81 36.69 21.55 36.51C18.16 36.41 18.16 34.44 21.17 25.59C24 17.59 29.46 11 33.42 11C34.83 11 35.77 10.62 35.4 10.06C35.11 9.49 33.89 9.12 32.76 9.12C30.69 9.12 30.69 9.02 33.04 7.33C34.27 6.29 35.68 5.64 35.96 5.92C36.34 6.11 37.66 5.92 38.88 5.45C40.95 4.6 40.95 4.51 38.22 4.51C36.72 4.41 34.27 5.16 32.95 6.11Z" />
		<path id="Layer" class="shp0" d="M41.05 6.2C40.77 6.76 41.8 6.95 43.69 6.58C46.98 6.11 53.77 8.46 53.77 10.15C53.77 11.38 53.2 11.19 49.06 9.12C46.98 8.08 44.82 7.24 44.16 7.24C43.5 7.24 45.19 8.27 47.93 9.59C50.56 10.81 52.82 12.13 52.82 12.41C52.82 12.69 52.35 12.69 51.88 12.41C51.32 12.04 50.28 12.22 49.62 12.79C48.68 13.54 48.02 13.45 47.17 12.41C46.51 11.66 45.66 11 45.19 11C44.72 11 45.19 11.85 46.32 12.98C48.21 14.86 48.21 14.95 46.51 16.55C45.01 18.06 44.82 18.06 44.44 16.74C44.06 14.86 41.52 11.94 40.3 11.94C39.73 11.94 40.2 12.79 41.33 13.82C44.06 16.36 43.97 16.65 40.2 19.66C37.19 22.11 36.72 22.2 33.98 21.07C31.44 19.94 31.25 19.66 32.48 18.62C33.32 17.96 34.64 17.68 35.49 17.96C36.24 18.25 37.66 17.87 38.51 17.02C39.92 15.61 39.82 15.52 38.03 16.08C36.53 16.55 35.87 16.27 35.59 15.05C35.21 13.45 35.11 13.45 35.02 14.95C35.02 15.89 34.83 16.65 34.74 16.65C33.23 16.74 27.39 19.38 28.52 19.47C31.53 19.47 33.32 23.71 32.85 29.54C32.48 33.96 31.91 35.19 29.65 37.07C28.14 38.2 26.54 39.14 25.98 39.14C22.87 38.76 22.4 39.24 23.81 40.84C26.07 43.38 28.14 53.45 28.9 65.12L29.56 75.47L31.44 70.95C32.48 68.51 33.8 66.62 34.36 66.81C34.93 67 36.06 68.88 36.81 70.95C37.56 73.02 38.69 75.38 39.35 76.04C42.46 79.8 43.22 91.75 40.39 93.45C39.73 93.82 39.64 93.73 40.01 93.07C40.39 92.41 40.2 91.94 39.73 91.94C39.16 91.94 38.69 92.32 38.69 92.79C38.69 93.35 35.96 95.71 32.57 98.06C29.18 100.51 26.45 102.86 26.45 103.33C26.45 103.8 25.51 104.18 24.38 104.18C22.77 104.18 22.59 104.46 23.43 105.31C24.38 106.25 25.32 105.68 27.96 102.95C29.84 101.07 31.82 99.47 32.29 99.47C32.76 99.47 33.8 98.81 34.55 98.06C35.4 97.31 37.28 96.65 38.79 96.65C40.86 96.65 42.37 95.71 44.63 93.16C49.43 87.71 55.56 85.35 65.35 85.35C72.51 85.35 74.58 85.73 79.95 88.08C83.44 89.59 88.62 91.56 91.45 92.41C94.27 93.26 97.57 94.39 98.79 94.86C101.53 95.99 102.75 95.89 102.75 94.76C102.75 93.82 91.45 90.06 88.24 90.06L86.27 89.96L88.34 88.27C91.63 85.54 104.16 80.65 109.44 79.99C114.62 79.33 115.75 77.82 110.95 77.82C106.8 77.82 95.31 81.78 88.9 85.35L83.91 88.18L79.39 86.11C75.71 84.32 73.27 84.04 65.54 83.94C56.5 83.94 55.93 84.04 49.62 87.42L43.22 90.91L43.78 88.08C44.35 85.26 44.06 84.41 38.32 69.82C35.4 62.48 35.02 60.32 34.93 53.16C34.93 43.85 35.87 40.46 38.88 39.33C42.09 38.11 48.68 30.86 50.56 26.53C51.51 24.46 52.45 22.39 52.64 21.92C52.92 21.45 52.54 21.45 51.88 21.82C51.32 22.2 50.19 23.89 49.43 25.59C47.36 30.58 41.61 36.32 38.13 36.98C36.34 37.26 35.21 37.92 35.49 38.39C36.06 39.42 34.83 39.42 33.32 38.48C30.78 36.88 35.96 25.78 39.92 24.27C41.14 23.8 43.22 23.61 44.63 23.89C46.14 24.18 47.17 23.99 47.17 23.33C47.17 22.76 47.83 22.29 48.68 22.29C49.53 22.29 49.81 21.82 49.43 21.16C48.96 20.41 49.62 20.32 51.6 20.69C56.31 21.64 59.51 16.65 56.12 13.82C55.27 13.16 54.8 12.04 55.08 11.38C55.27 10.81 54.99 9.59 54.43 8.84C52.16 6.11 42.37 4.13 41.05 6.2Z" />
		<path id="Layer" class="shp0" d="M73.17 26.72C72.89 27 72.61 36.6 72.61 47.89L72.61 68.41L77.79 68.41L82.97 68.41L82.97 58.44C82.97 52.51 83.34 48.65 83.91 48.84C84.38 48.93 89.75 53.54 95.78 59C101.81 64.46 107.27 68.88 107.84 68.88C108.59 68.88 108.87 62.67 108.87 48.18L108.87 27.47L103.97 27.19L98.98 26.91L98.98 36.79C98.98 42.34 98.7 46.76 98.42 46.76C98.04 46.76 92.86 42.44 86.83 37.07C74.87 26.44 74.11 25.87 73.17 26.72Z" />
		<path id="Layer" class="shp0" d="M162.47 27.85C157.39 30.2 155.5 33.02 155.5 38.39C155.5 44.22 158.42 47.71 166.81 51.94C173.49 55.33 175.1 57.21 172.83 59.09C171.52 60.22 162.38 59.85 159.18 58.53C157.95 58.06 157.29 58.91 156.16 62.2C154.75 66.34 154.75 66.53 156.63 67.56C159.65 69.16 172.55 69.73 176.51 68.51C181.88 66.72 184.7 62.67 184.7 56.65C184.7 50.44 182.25 47.42 173.4 43C166.52 39.61 165.49 38.48 167.09 36.6C167.94 35.56 169.54 35.38 173.97 35.85C177.26 36.22 180.09 36.13 180.28 35.75C180.56 35.28 181.03 33.49 181.41 31.61C182.07 28.22 182.07 28.22 177.73 27.09C171.7 25.59 166.9 25.87 162.47 27.85Z" />
		<path id="Layer" class="shp0" d="M326.32 28.22C326.13 28.88 326.04 38.11 326.13 48.65L326.42 67.94L331.88 68.22L337.25 68.51L337.25 61.54L337.25 54.48L344.79 54.11C351.85 53.82 352.51 53.64 355.34 50.72C358.26 47.8 358.44 47.33 358.44 40.65C358.44 34.34 358.16 33.4 356 31.24C352.79 28.04 348.37 27.09 336.5 27C329.53 27 326.7 27.38 326.32 28.22Z" />
		<path id="Layer" class="shp0" d="M366.23 27.56C365 28.79 365.47 61.16 366.79 63.71C368.49 67.09 373.76 69.54 378.19 68.98C382.81 68.41 383.37 67.75 382.34 63.99C381.77 61.73 381.02 60.98 378.94 60.69L376.4 60.41L375.93 43.94L375.46 27.47L371.22 27.19C368.86 27 366.6 27.19 366.23 27.56Z" />
		<path id="Layer" fill-rule="evenodd" class="shp0" d="M141.56 38.86C142.97 39.61 145.33 41.78 146.74 43.66C149 46.58 149.38 47.99 149.38 52.88C149.38 57.78 149 59.19 146.74 62.11C143.26 66.72 139.11 68.69 132.89 68.79C122.44 68.88 115.28 61.73 116.13 51.85C116.79 44.51 121.4 38.95 128.28 37.35C132.14 36.51 138.07 37.16 141.56 38.86ZM126.49 49.78C124.98 53.07 125.92 56.65 128.94 59.09C135.25 63.99 142.88 54.76 138.07 47.99C135.25 43.94 128.84 44.98 126.49 49.78Z" />
		<path id="Layer" fill-rule="evenodd" class="shp0" d="M248.48 39.33C251.4 40.93 251.49 40.93 252.06 39.14C252.53 37.64 253.38 37.35 256.11 37.54L259.59 37.82L259.59 54.29C259.59 68.32 259.31 71.24 257.9 73.87C255.35 78.58 251.21 80.65 244.43 80.65C239.25 80.65 228.98 78.39 228.98 77.26C228.98 76.98 229.83 75.19 230.86 73.12L232.75 69.45L236.61 70.76C244.43 73.59 249.7 71.71 249.7 66.25C249.7 64.55 249.61 64.46 247.25 66.06C244.05 68.13 237.27 68.04 233.5 65.87C228.41 62.86 226.62 59.56 226.62 53.07C226.62 44.41 230.49 39.05 237.93 37.35C241.41 36.51 244.62 37.07 248.48 39.33ZM236.51 52.79C236.51 58.25 244.62 61.26 248.29 57.12C250.55 54.67 250.46 49.96 248.19 47.71C243.2 42.91 236.51 45.82 236.51 52.79Z" />
		<path id="Layer" class="shp0" d="M273.35 37.45C267.79 38.58 267.22 39.24 268.92 43.38C270.24 46.48 270.52 46.67 272.78 45.82C278.24 43.75 283.61 45.07 283.61 48.55C283.61 49.78 282.67 49.96 279 49.78C273.16 49.31 268.82 51.47 267.13 55.61C263.36 64.46 273.06 72.27 282.01 67.66C285.03 66.06 285.59 65.96 286.25 67.19C286.82 68.04 288.14 68.41 290.3 68.22L293.5 67.94L293.79 57.31C294.07 45.45 293.03 41.68 288.51 39.05C285.12 37.07 278.53 36.32 273.35 37.45Z" />
		<path id="Layer" class="shp0" d="M315.27 37.35C313.85 37.82 311.87 38.86 310.93 39.71C309.42 41.12 309.24 41.02 308.77 39.24C308.29 37.54 307.63 37.26 304.62 37.54L301.04 37.82L300.76 45.35C300.57 49.49 300.76 56.36 301.04 60.6L301.7 68.41L306.32 68.41L310.93 68.41L310.93 58.62C310.93 47.52 311.78 45.82 316.96 45.82C319.88 45.82 320.16 45.54 321.11 41.87C321.67 39.71 322.05 37.82 321.95 37.73C320.92 36.88 317.43 36.79 315.27 37.35Z" />
		<path id="Layer" class="shp0" d="M394.77 37.35C390.34 38.39 387.23 42.15 387.23 46.67C387.23 51.09 389.68 53.82 396.37 56.74C403.15 59.75 402.59 61.45 395.05 61.07C389.4 60.79 389.31 60.79 388.27 63.71C387.7 65.4 387.42 67.09 387.7 67.47C387.89 67.85 390.72 68.41 393.73 68.79C404.38 70.01 410.78 66.34 410.78 59.09C410.78 54.39 408.71 51.75 402.78 49.21C395.43 45.92 395.05 44.41 401.74 45.16C406.83 45.64 407.2 45.54 408.05 43.38C409.56 39.24 409.09 38.48 404.19 37.45C401.55 36.88 399.1 36.41 398.73 36.51C398.35 36.6 396.56 36.98 394.77 37.35Z" />
		<path id="Layer" class="shp0" d="M191.02 37.92C189.7 39.33 190.36 56.93 191.86 60.88C194.97 68.51 206.28 71.52 214.09 66.72C219.18 63.61 220.59 58.91 220.31 47.24L220.03 37.82L215.32 37.82L210.61 37.82L210.14 47.71C209.86 53.16 209.29 58.15 208.91 58.72C208.44 59.38 206.94 59.94 205.43 59.94C203.92 59.94 202.41 59.38 201.94 58.72C201.57 58.15 201 53.16 200.72 47.71L200.25 37.82L196.01 37.54C193.65 37.35 191.39 37.54 191.02 37.92Z" />
		<path id="Layer" class="shp0" d="M131.01 90.53L131.01 92.88L282.2 92.88L433.39 92.88L433.39 90.53L433.39 88.18L282.2 88.18L131.01 88.18L131.01 90.53Z" />
	</g>
</svg>